<svg width="32" height="32" viewBox="0 0 48 48" fill="none" xmlns="http://www.w3.org/2000/svg">
<rect x="1" y="1" width="46" height="46" rx="10" fill="#070907" stroke="#1c381c" stroke-width="1.5"/>
<rect x="7" y="28" width="4" height="4" rx="0.8" fill="#4ade80" opacity="1"/>
<rect x="7" y="23" width="4" height="4" rx="0.8" fill="#4ade80" opacity="0.38"/>
<rect x="7" y="18" width="4" height="4" rx="0.8" fill="#4ade80" opacity="0.18"/>
<rect x="7" y="13" width="4" height="4" rx="0.8" fill="#4ade80" opacity="0.07"/>
<rect x="12" y="8" width="4" height="4" rx="0.8" fill="#4ade80" opacity="1"/>
<rect x="12" y="3" width="4" height="4" rx="0.8" fill="#4ade80" opacity="0.42"/>
<rect x="12" y="38" width="4" height="4" rx="0.8" fill="#4ade80" opacity="0.72"/>
<rect x="12" y="33" width="4" height="4" rx="0.8" fill="#4ade80" opacity="0.24"/>
<rect x="12" y="28" width="4" height="4" rx="0.8" fill="#4ade80" opacity="0.09"/>
<rect x="17" y="33" width="4" height="4" rx="0.8" fill="#4ade80" opacity="1"/>
<rect x="17" y="28" width="4" height="4" rx="0.8" fill="#4ade80" opacity="0.34"/>
<rect x="17" y="23" width="4" height="4" rx="0.8" fill="#4ade80" opacity="0.16"/>
<rect x="17" y="18" width="4" height="4" rx="0.8" fill="#4ade80" opacity="0.06"/>
<rect x="22" y="18" width="4" height="4" rx="0.8" fill="#4ade80" opacity="1"/>
<rect x="22" y="13" width="4" height="4" rx="0.8" fill="#4ade80" opacity="0.38"/>
<rect x="22" y="8" width="4" height="4" rx="0.8" fill="#4ade80" opacity="0.18"/>
<rect x="22" y="3" width="4" height="4" rx="0.8" fill="#4ade80" opacity="0.07"/>
<rect x="22" y="23" width="4" height="4" rx="0.8" fill="#4ade80" opacity="0.28"/>
<rect x="22" y="28" width="4" height="4" rx="0.8" fill="#4ade80" opacity="0.1"/>
<rect x="27" y="3" width="4" height="4" rx="0.8" fill="#4ade80" opacity="1"/>
<rect x="27" y="23" width="4" height="4" rx="0.8" fill="#4ade80" opacity="0.82"/>
<rect x="27" y="18" width="4" height="4" rx="0.8" fill="#4ade80" opacity="0.32"/>
<rect x="27" y="13" width="4" height="4" rx="0.8" fill="#4ade80" opacity="0.14"/>
<rect x="27" y="8" width="4" height="4" rx="0.8" fill="#4ade80" opacity="0.05"/>
<rect x="32" y="38" width="4" height="4" rx="0.8" fill="#4ade80" opacity="1"/>
<rect x="32" y="33" width="4" height="4" rx="0.8" fill="#4ade80" opacity="0.36"/>
<rect x="32" y="28" width="4" height="4" rx="0.8" fill="#4ade80" opacity="0.18"/>
<rect x="32" y="23" width="4" height="4" rx="0.8" fill="#4ade80" opacity="0.08"/>
<rect x="32" y="18" width="4" height="4" rx="0.8" fill="#4ade80" opacity="0.03"/>
<rect x="37" y="13" width="4" height="4" rx="0.8" fill="#4ade80" opacity="1"/>
<rect x="37" y="8" width="4" height="4" rx="0.8" fill="#4ade80" opacity="0.4"/>
<rect x="37" y="3" width="4" height="4" rx="0.8" fill="#4ade80" opacity="0.16"/>
<rect x="37" y="28" width="4" height="4" rx="0.8" fill="#4ade80" opacity="0.68"/>
<rect x="37" y="23" width="4" height="4" rx="0.8" fill="#4ade80" opacity="0.24"/>
<rect x="37" y="18" width="4" height="4" rx="0.8" fill="#4ade80" opacity="0.09"/>
</svg>
